<svg width="69" height="69" viewBox="0 0 69 69" fill="none" xmlns="http://www.w3.org/2000/svg">
<path d="M49.5938 32.3453H36.6563V17.2506C36.6563 16.0584 35.6902 15.0948 34.5 15.0948C33.3098 15.0948 32.3438 16.0584 32.3438 17.2506V34.4968C32.3438 35.6889 33.3098 36.6526 34.5 36.6526H49.5938C50.7862 36.6526 51.75 35.6889 51.75 34.4968C51.75 33.3111 50.7862 32.3453 49.5938 32.3453Z" fill="#F26B38"/>
<path d="M34.5 0C15.4452 0 0 15.4447 0 34.4989C0 53.5531 15.4452 69 34.5 69C53.5548 69 69 53.5531 69 34.4989C69 15.4447 53.5548 0 34.5 0ZM34.5 62.5314C19.044 62.5314 6.46875 49.9566 6.46875 34.4989C6.46875 19.0434 19.044 6.46855 34.5 6.46855C49.956 6.46855 62.5313 19.0434 62.5313 34.4989C62.5313 49.9566 49.956 62.5314 34.5 62.5314Z" fill="#F26B38"/>
</svg>
