<svg width="50" height="69" viewBox="0 0 50 69" fill="none" xmlns="http://www.w3.org/2000/svg">
<path d="M40.625 37.5H9.375V40.625H40.625V37.5Z" fill="#F26B38"/>
<path d="M40.625 46.875H9.375V50H40.625V46.875Z" fill="#F26B38"/>
<path d="M28.125 9.375H9.375V12.5H28.125V9.375Z" fill="#F26B38"/>
<path d="M40.625 56.25H9.375V59.375H40.625V56.25Z" fill="#F26B38"/>
<path d="M40.625 28.125H9.375V31.25H40.625V28.125Z" fill="#F26B38"/>
<path d="M48.4844 68.75C48.4844 68.75 50 68.75 50 67.2219V13.75L36.3625 0H1.51562C1.51562 0 0 0 0 1.52812V67.2187C0 68.75 1.51562 68.75 1.51562 68.75H48.4844ZM3.125 3.125H34.375V12.5C34.375 15.625 37.5 15.625 37.5 15.625H46.875V65.625H3.125V3.125Z" fill="#F26B38"/>
<path d="M40.625 18.75H9.375V21.875H40.625V18.75Z" fill="#F26B38"/>
</svg>
