<svg width="109" height="69" viewBox="0 0 109 69" fill="none" xmlns="http://www.w3.org/2000/svg">
<path d="M80.4539 15.813C80.3331 15.576 80.1729 15.3556 79.9693 15.171C79.7651 14.987 79.5364 14.8519 79.2979 14.7663L66.7666 10.2625C65.8935 9.94875 64.9586 9.78048 63.9853 9.7892C63.0131 9.79963 62.0824 9.98641 61.2138 10.317L51.7056 13.9441C51.0363 14.2 50.372 14.4943 49.7168 14.8291C49.4978 14.9423 49.2828 15.065 49.0688 15.1852C48.351 14.7963 47.6015 14.4538 46.8195 14.1624C44.3252 13.23 41.7711 12.9153 39.2991 13.1266L32.9022 13.6757C32.6239 13.6997 32.3429 13.7856 32.0804 13.9399C31.8179 14.0945 31.6011 14.3032 31.4307 14.5445L17.0271 35.0493C16.7303 35.4703 16.5718 36.0062 16.6203 36.5731C16.6678 37.1401 16.9118 37.6372 17.2722 37.9946L23.5372 44.2037C23.1936 44.8328 22.9758 45.5391 22.9256 46.2949C22.8352 47.6532 23.2813 48.9645 24.1775 49.9878C25.075 51.0106 26.3161 51.6233 27.6755 51.712C27.7478 51.7169 27.8215 51.7169 27.8951 51.7196C27.3379 53.5207 27.7938 55.5661 29.2451 56.9397C30.1137 57.7622 31.2273 58.2412 32.4108 58.318C31.6483 60.2078 32.0606 62.4613 33.6187 63.9355C34.569 64.8362 35.8118 65.3313 37.1216 65.3313C38.4852 65.3313 39.7574 64.7986 40.7181 63.8368C41.0753 66.1448 42.9928 67.9851 45.418 68.1436C45.5297 68.1513 45.6439 68.1562 45.7556 68.1562C46.3753 68.1562 46.9691 68.0392 47.5211 67.8332C48.4229 68.4344 49.4981 68.7656 50.6421 68.7193C52.0483 68.6606 53.3096 68.0402 54.2529 67.0697L50.8072 63.6317C50.8153 63.5522 50.83 63.476 50.8334 63.3937C50.8781 62.7185 50.7855 62.0649 50.5845 61.4576L57.6364 68.4916C58.5263 68.8537 59.4947 69.0352 60.5033 68.9943C62.5215 68.912 64.3193 67.959 65.5925 66.4843L66.2984 65.6657C66.3637 65.5882 66.4139 65.5012 66.4573 65.4076L55.5995 54.5799C55.3195 54.3027 55.2972 53.8415 55.5457 53.5511C55.7946 53.2624 56.2258 53.2526 56.5036 53.5298L69.4166 66.4068C70.1204 66.6536 70.8734 66.7738 71.6561 66.7417C73.4303 66.6691 75.0135 65.8312 76.1327 64.5322L77.8377 62.5587C78.2287 62.1034 78.4619 61.4891 78.44 60.8215L67.1085 49.5242C66.8317 49.2464 66.8068 48.7841 67.0551 48.4961C67.3057 48.207 67.7358 48.1972 68.013 48.4744L79.3979 59.8265C79.8651 59.9512 80.3559 60.0122 80.8603 59.992C82.3149 59.9333 83.6088 59.247 84.5248 58.1834L84.9829 57.653C85.8993 56.5917 86.4397 55.1538 86.3846 53.5902C86.329 52.0273 85.6919 50.6385 84.704 49.6527L81.6646 46.6225L82.4326 47.3871L90.6505 39.9663C90.9996 39.6525 91.2528 39.2132 91.3455 38.6969C91.4377 38.1812 91.3543 37.6719 91.1402 37.2411L80.4539 15.813ZM27.8183 49.5146C27.0477 49.4644 26.3429 49.117 25.8326 48.5354C25.3229 47.9555 25.0712 47.2109 25.1225 46.4387C25.2199 44.9232 26.4889 43.7363 28.004 43.7363C28.0682 43.7363 28.1335 43.738 28.1978 43.7419C28.9683 43.7931 29.6731 44.1399 30.1834 44.7215C30.6932 45.3027 30.9448 46.0466 30.8953 46.8189C30.7895 48.3986 29.4165 49.6214 27.8183 49.5146ZM32.7452 56.1315C32.003 56.1315 31.2971 55.8516 30.758 55.3412C29.6137 54.2597 29.5518 52.437 30.6138 51.2846C30.6689 51.2274 31.7973 50.0337 32.3387 49.464L32.6229 49.1617C33.1751 48.579 33.9212 48.2576 34.7238 48.2576C35.4667 48.2576 36.173 48.5393 36.711 49.0505C37.2724 49.5808 37.5943 50.2981 37.6151 51.0714C37.6364 51.842 37.3554 52.5767 36.8248 53.1367L36.0198 53.9878C35.8477 54.1686 35.6631 54.3641 35.4742 54.5635C35.4442 54.5973 35.411 54.6309 35.382 54.6626C35.2416 54.8102 35.1174 54.9409 35.021 55.0417C34.9659 55.1011 34.9111 55.1604 34.8545 55.2181C34.8402 55.2327 34.8294 55.2453 34.8283 55.247C34.2805 55.8178 33.5393 56.1315 32.7452 56.1315ZM39.2026 62.2451C38.6531 62.8159 37.914 63.1295 37.1205 63.1295C36.3776 63.1295 35.6703 62.8478 35.1327 62.337C33.9891 61.2555 33.9265 59.4332 34.9851 58.2863C35.0102 58.2591 35.6729 57.5577 36.4238 56.7653C36.4238 56.7646 36.4238 56.7646 36.4238 56.7646L36.9814 56.176C37.9578 55.1423 38.278 54.8064 38.3859 54.6892C38.3984 54.6777 38.4131 54.6641 38.4235 54.6522L38.4256 54.6505C38.5199 54.5486 38.5748 54.492 38.5765 54.4903C39.1277 53.9076 39.8748 53.5857 40.6781 53.5857C41.4209 53.5857 42.1257 53.8668 42.6652 54.3775C43.2266 54.9092 43.547 55.6269 43.5681 56.3981C43.5894 57.172 43.3083 57.9062 42.7756 58.4686C42.7246 58.5233 39.3142 62.1264 39.2026 62.2451ZM48.6371 63.2505C48.5325 64.8292 47.1618 66.0535 45.5612 65.9484C43.9699 65.8427 42.7597 64.4627 42.8648 62.8725C42.9643 61.3557 44.2284 60.169 45.7456 60.169C45.8099 60.169 45.8752 60.1712 45.9394 60.175C47.5307 60.2797 48.7407 61.6597 48.6371 63.2505ZM80.9196 45.8794L58.4091 23.4363L58.6629 22.7954C58.7941 22.461 58.7773 22.0661 58.585 21.734C58.3923 21.403 58.0698 21.2101 57.7322 21.1922L56.0592 21.092L54.2316 20.9837L54.0927 23.1502C54.091 23.1953 53.7289 28.1218 51.2167 32.5729C48.6414 37.1405 45.2289 38.7154 44.7088 38.8166C44.1276 38.9294 43.5183 39.0366 43.0118 39.0366C42.6637 39.0366 42.3959 38.9877 42.1666 38.8826L41.312 38.4867C40.9536 38.3205 40.6802 38.0157 40.536 37.6268C40.3954 37.2516 40.3971 36.8414 40.536 36.4674L49.0977 17.6776L50.5534 16.7186L51.1399 16.4952H51.1389L61.899 12.3912C62.5755 12.1335 63.2839 11.9985 64.0034 11.9919L64.0634 11.9912C64.7616 11.9912 65.4532 12.1121 66.1154 12.3507L78.6472 16.8545L89.335 38.2818L80.9196 45.8794Z" fill="#F26B38"/>
<path d="M93.0989 2.12778L84.6391 6.34567C83.4224 6.95388 82.4356 8.02585 81.9695 9.41777C81.5038 10.8103 81.6482 12.2595 82.2533 13.4789L93.3299 35.685C93.9371 36.901 95.0084 37.8895 96.4031 38.3535C97.794 38.8196 99.2431 38.6775 100.462 38.0697L108.92 33.8497L93.0989 2.12778ZM100.44 33.8629C99.3167 33.8629 98.4028 32.9518 98.4028 31.8266C98.4028 30.7004 99.3167 29.7871 100.44 29.7871C101.566 29.7871 102.48 30.7004 102.48 31.8266C102.48 32.9518 101.566 33.8629 100.44 33.8629Z" fill="#F26B38"/>
<path d="M30.2941 8.86933C30.0398 7.42231 29.2272 6.21547 28.1129 5.43239L20.3774 0L0 29.0077L7.7344 34.4411C8.84764 35.2242 10.2598 35.5809 11.7062 35.3278C13.1536 35.0757 14.3594 34.2599 15.141 33.1473L29.4057 12.8413C30.1894 11.7285 30.5462 10.3149 30.2941 8.86933ZM10.702 28.573C10.5338 29.6873 9.49627 30.4536 8.3826 30.2843C7.26893 30.1177 6.50309 29.0796 6.67136 27.9653C6.83921 26.852 7.87757 26.0857 8.98911 26.2529C10.1034 26.4214 10.8686 27.4604 10.702 28.573Z" fill="#F26B38"/>
</svg>
